<?xml version="1.0" encoding="utf-8"?>
<!-- Generator: Adobe Illustrator 16.2.1, SVG Export Plug-In . SVG Version: 6.00 Build 0)  -->
<!DOCTYPE svg PUBLIC "-//W3C//DTD SVG 1.1//EN" "http://www.w3.org/Graphics/SVG/1.1/DTD/svg11.dtd">
<svg version="1.1" id="Layer_1" xmlns="http://www.w3.org/2000/svg" xmlns:xlink="http://www.w3.org/1999/xlink" x="0px" y="0px"
	 width="48px" height="48px" viewBox="0 0 48 48" enable-background="new 0 0 48 48" xml:space="preserve">
<path fill="#FFFFFF" d="M44.822,39.155l-8.598-8.595C37.974,27.786,39,24.515,39,21c0-9.926-8.074-18-18-18C11.075,3,3,11.074,3,21
	c0,9.925,8.075,18,18,18c3.519,0,6.793-1.03,9.568-2.781l8.597,8.594L44.822,39.155z M7.001,21.001c0-7.721,6.28-14,14-14
	c7.721,0,14,6.279,14,14c0,7.72-6.279,14-14,14C13.281,35.001,7.001,28.72,7.001,21.001z"/>
</svg>
