<?xml version="1.0" encoding="utf-8"?>
<!-- Generator: Adobe Illustrator 16.2.1, SVG Export Plug-In . SVG Version: 6.00 Build 0)  -->
<!DOCTYPE svg PUBLIC "-//W3C//DTD SVG 1.1//EN" "http://www.w3.org/Graphics/SVG/1.1/DTD/svg11.dtd">
<svg version="1.1" id="Layer_1" xmlns="http://www.w3.org/2000/svg" xmlns:xlink="http://www.w3.org/1999/xlink" x="0px" y="0px"
	 width="1825.754px" height="689.681px" viewBox="0 0 1825.754 689.681" enable-background="new 0 0 1825.754 689.681"
	 xml:space="preserve">
<g>
	<path d="M255.887,342.402c0,45.248-36.887,82.352-82.41,82.352c-45.609,0-82.59-37.104-82.59-82.352
		c0-45.6,36.98-82.619,82.59-82.619l82.371-0.057L255.887,342.402z M347.293,0h-91.35v168.83c-30.918,0-63.357,0-82.467,0
		C77.65,168.83,0,246.387,0,342.336c0,95.777,77.65,173.182,173.477,173.182c95.748,0,173.779-77.404,173.779-173.182
		c0-48.191,0.064-173.629,0.064-173.629L347.293,0z"/>
	<path d="M1268.967,424.973c45.771,0,82.809-37.143,82.809-82.637c0-45.732-37.037-82.893-82.809-82.893
		c-45.797,0-82.873,37.16-82.873,82.893C1186.094,387.83,1223.17,424.973,1268.967,424.973 M1095.775,342.336
		c0-95.949,77.756-173.506,173.514-173.506c95.703,0,173.316,77.557,173.316,173.506c0,95.625-77.613,173.117-173.316,173.117
		C1173.531,515.453,1095.775,437.961,1095.775,342.336"/>
	<path d="M1734.375,342.469c0-45.184-36.793-81.891-81.967-81.891c-45.268,0-81.889,36.707-81.889,81.891v166.125
		c-46.479,0-91.445,0.094-91.445,0.094V342.469c0-95.93,77.539-173.354,173.334-173.354c95.674,0,173.316,77.424,173.316,173.354
		c0,48.928,0.029,165.992,0.029,165.992h-91.445C1734.309,508.461,1734.375,365.135,1734.375,342.469"/>
	<path d="M882.424,281.883c-13.236-8.617-8.959-24.521,12.479-30.33c28.314-8.098,75.002-1.541,116.912,16.82l43.234-58.805
		c-18.799-15.895-59.166-35.752-118.805-39.518c0,0-99.713-12.402-140.033,63.205c0,0-35.742,70.896,34.699,114.908
		c42.895,26.678,117.357,36.082,139.922,48.977c19.336,10.812,12.959,31.133-15.725,37.85
		c-47.131,10.596-110.678-16.498-131.896-32.373l-43.689,60.141c29.242,22.732,66.924,41.938,126.393,51.664
		c0,0,93.715,16.365,145.482-48.297c9.518-11.834,51.91-91.492-33.396-136.92C975.723,306.811,904.949,296.764,882.424,281.883"/>
	<path d="M456.371,576.244c3.766,2.318,46.441,31.371,87.756,32.289c99.23,2.035,105.541-101.15,105.541-125.492
		c-19.072,19.951-57.766,32.412-81.852,32.412c-95.891,0-172.672-74.805-172.672-170.629V175.396c0,0,44.652,0.066,91.303,0.133
		c0,0,0.094,148.49,0.094,169.295c0,45.268,36.717,81.766,81.984,81.766c45.307,0,81.768-36.498,81.768-81.766
		c0-18.703,0.057-169.295,0.057-169.295c46.695-0.066,91.492-0.133,91.492-0.133l-0.096,169.428
		c0,150.014,7.426,303.973-138.775,338.939c-110.043,26.158-187.885-42.705-191.715-45.846L456.371,576.244z"/>
</g>
</svg>
